<svg xmlns="http://www.w3.org/2000/svg" xmlns:xlink="http://www.w3.org/1999/xlink"><defs>
<linearGradient id="paint0_linear_318_61" x1="24" y1="0" x2="24" y2="47.644" gradientUnits="userSpaceOnUse">
<stop stop-color="#2AABEE"/>
<stop offset="1" stop-color="#229ED9"/>
</linearGradient>
<clipPath id="clip0_318_61">
<rect width="48" height="48" fill="white"/>
</clipPath>

<clipPath id="clip0_1106_5">
<rect width="48" height="48" fill="white"/>
</clipPath>
</defs><symbol id="arrow-left" viewBox="0 -960 960 960"><path d="M640-80 240-480l400-400 71 71-329 329 329 329-71 71Z"/></symbol><symbol id="arrow-right" viewBox="0 -960 960 960"><path d="m321-80-71-71 329-329-329-329 71-71 400 400L321-80Z"/></symbol><symbol id="notification" viewBox="0 0 34 34">
<path d="M21.0472 24.1991C23.7312 23.8807 26.3193 23.2497 28.7741 22.3435C26.7386 20.0841 25.4997 17.093 25.4997 13.8125V12.8197C25.4999 12.7965 25.5 12.7732 25.5 12.75C25.5 8.05558 21.6944 4.25 17 4.25C12.3056 4.25 8.5 8.05558 8.5 12.75L8.49972 13.8125C8.49972 17.093 7.2608 20.0841 5.22534 22.3435C7.68032 23.2498 10.2686 23.8808 12.9528 24.1992M21.0472 24.1991C19.72 24.3565 18.3693 24.4375 16.9997 24.4375C15.6303 24.4375 14.2798 24.3565 12.9528 24.1992M21.0472 24.1991C21.1789 24.6091 21.25 25.0462 21.25 25.5C21.25 27.8472 19.3472 29.75 17 29.75C14.6528 29.75 12.75 27.8472 12.75 25.5C12.75 25.0463 12.8211 24.6091 12.9528 24.1992" stroke-width="2" stroke-linecap="round" stroke-linejoin="round"/>
</symbol><symbol id="search" viewBox="0 0 34 34">
<path d="M29.75 29.75L22.388 22.388M22.388 22.388C24.3108 20.4653 25.5 17.809 25.5 14.875C25.5 9.00697 20.743 4.25 14.875 4.25C9.00697 4.25 4.25 9.00697 4.25 14.875C4.25 20.743 9.00697 25.5 14.875 25.5C17.809 25.5 20.4653 24.3108 22.388 22.388Z" stroke-width="2" stroke-linecap="round" stroke-linejoin="round"/>
</symbol><symbol id="tg" viewBox="0 0 48 48">
<g clip-path="url(#clip0_318_61)">
<path d="M24 48C37.2548 48 48 37.2548 48 24C48 10.7452 37.2548 0 24 0C10.7452 0 0 10.7452 0 24C0 37.2548 10.7452 48 24 48Z"/>
<path fill-rule="evenodd" clip-rule="evenodd" d="M10.8638 23.7466C17.8603 20.6984 22.5257 18.6888 24.8601 17.7179C31.5251 14.9456 32.91 14.4641 33.8127 14.4482C34.0113 14.4447 34.4552 14.4939 34.7427 14.7272C34.9855 14.9242 35.0523 15.1904 35.0843 15.3771C35.1163 15.5639 35.1561 15.9895 35.1244 16.3219C34.7633 20.1169 33.2004 29.3263 32.4053 33.5767C32.0689 35.3752 31.4065 35.9783 30.7652 36.0373C29.3714 36.1655 28.3131 35.1162 26.9632 34.2313C24.8509 32.8467 23.6576 31.9847 21.6072 30.6336C19.2377 29.0721 20.7738 28.2139 22.1242 26.8113C22.4776 26.4442 28.6183 20.8587 28.7372 20.352C28.7521 20.2886 28.7659 20.0524 28.6255 19.9277C28.4852 19.803 28.2781 19.8456 28.1286 19.8795C27.9168 19.9276 24.5423 22.158 18.0053 26.5707C17.0475 27.2284 16.1799 27.5489 15.4026 27.5321C14.5457 27.5135 12.8973 27.0475 11.6719 26.6492C10.1689 26.1606 8.97432 25.9023 9.07834 25.0726C9.13252 24.6404 9.72767 24.1984 10.8638 23.7466Z"/>
</g>

</symbol><symbol id="vk" viewBox="0 0 48 48">
<g clip-path="url(#clip0_1106_5)">
<path d="M0 23.04C0 12.1788 0 6.74826 3.37413 3.37413C6.74826 0 12.1788 0 23.04 0H24.96C35.8212 0 41.2517 0 44.6259 3.37413C48 6.74826 48 12.1788 48 23.04V24.96C48 35.8212 48 41.2517 44.6259 44.6259C41.2517 48 35.8212 48 24.96 48H23.04C12.1788 48 6.74826 48 3.37413 44.6259C0 41.2517 0 35.8212 0 24.96V23.04Z"/>
<path d="M25.54 34.5801C14.6 34.5801 8.3601 27.0801 8.1001 14.6001H13.5801C13.7601 23.7601 17.8 27.6401 21 28.4401V14.6001H26.1602V22.5001C29.3202 22.1601 32.6398 18.5601 33.7598 14.6001H38.9199C38.0599 19.4801 34.4599 23.0801 31.8999 24.5601C34.4599 25.7601 38.5601 28.9001 40.1201 34.5801H34.4399C33.2199 30.7801 30.1802 27.8401 26.1602 27.4401V34.5801H25.54Z"/>
</g>

</symbol></svg>